<svg xmlns="http://www.w3.org/2000/svg" viewBox="0 0 208.99 28.99"><defs><style>.cls-1{fill:#fff;}</style></defs><title>Asset 1</title><g id="Layer_2" data-name="Layer 2"><g id="Layer_1-2" data-name="Layer 1"><path class="cls-1" d="M22.25,10.54a9,9,0,0,1-8.47,6.58,9,9,0,0,1-8.47-6.58h0s1.93,2,0,0a2.69,2.69,0,0,0,2.11.87,2.65,2.65,0,0,0,2.11-.87,2.74,2.74,0,0,0,2.14.87,2.71,2.71,0,0,0,2.11-.87,2.7,2.7,0,0,0,2.11.87A2.65,2.65,0,0,0,18,10.54a2.74,2.74,0,0,0,2.15.87,2.71,2.71,0,0,0,2.11-.87"/><path class="cls-1" d="M22.32,8.58a8.56,8.56,0,1,0-17.12,0h7.71a2.44,2.44,0,0,1-1.6-2.29,2.49,2.49,0,0,1,5,0A2.53,2.53,0,0,1,14.8,8.58h7.53"/><path class="cls-1" d="M14.32,27.48c.15-7.27,5.85-13.56,13.2-13.81a14,14,0,0,1-13.2,13.81"/><path class="cls-1" d="M13.23,27.48A14,14,0,0,0,0,13.67,14,14,0,0,0,13.23,27.48"/><polyline class="cls-1" points="47.33 0.62 29.99 0.62 29.99 26.86 47.33 26.86 47.33 22.83 35.44 22.83 35.44 15.74 47.33 15.74 47.33 11.6 35.44 11.6 35.44 4.69 47.33 4.69 47.33 0.62"/><path class="cls-1" d="M53.8,11.6h5.34a3.24,3.24,0,0,0,3-3.49,3.23,3.23,0,0,0-3-3.42h-5V26.86H48.67V.62H61c4,0,6.9,3.51,6.94,7.49S65,15.74,61,15.74H53.8V11.6"/><polyline class="cls-1" points="62.3 26.86 68.16 26.86 70.7 19.96 81.39 19.96 79.79 15.63 72.23 15.63 75.94 5.63 83.68 26.86 89.53 26.86 79.06 0.62 72.41 0.62 62.3 26.86"/><path class="cls-1" d="M93.34.16V4.57a2.49,2.49,0,0,0,.11.84,1.62,1.62,0,0,0,.2.44,1.65,1.65,0,0,0,.78.56,2.19,2.19,0,0,0,.81.14,2,2,0,0,0,1.09-.26,1.4,1.4,0,0,0,.55-.57,2,2,0,0,0,.2-.67c0-.21,0-.39,0-.52V.16H98V4.89a2.63,2.63,0,0,1-.07.48,2.64,2.64,0,0,1-.5,1.07,2.41,2.41,0,0,1-1.18.82,3.86,3.86,0,0,1-1,.17A3.79,3.79,0,0,1,94,7.21a2.45,2.45,0,0,1-1.23-.92,2.13,2.13,0,0,1-.27-.62,4.08,4.08,0,0,1-.13-1.17V.16h.95"/><path class="cls-1" d="M100.09,2.85V2.28l.9,0v.8a1.68,1.68,0,0,1,.15-.24,1.48,1.48,0,0,1,.27-.28,1.49,1.49,0,0,1,.46-.25,1.92,1.92,0,0,1,.67-.08,3.24,3.24,0,0,1,.46.05,1.66,1.66,0,0,1,.57.24,1.38,1.38,0,0,1,.48.51,2,2,0,0,1,.18.92l-.08,3.36-.91,0,.07-3.15a2.42,2.42,0,0,0,0-.48.71.71,0,0,0-.21-.38,1.2,1.2,0,0,0-.84-.36,1.18,1.18,0,0,0-.86.34A1.51,1.51,0,0,0,101,4.39l-.07,2.86-.9,0,.11-4.38"/><path class="cls-1" d="M106,2.33h.9v5H106Zm-.1-2.15H107v1h-1.08Z"/><path class="cls-1" d="M108,2.3h.84v-1l.89-.3V2.3h1.07V3h-1.07V6a1.15,1.15,0,0,0,0,.2.57.57,0,0,0,.07.22.37.37,0,0,0,.2.16.62.62,0,0,0,.35.08,1.4,1.4,0,0,0,.43,0v.72a4.61,4.61,0,0,1-.75.06,1.44,1.44,0,0,1-.91-.24,1,1,0,0,1-.3-.82V3H108V2.3"/><path class="cls-1" d="M115.13,4.34a1.93,1.93,0,0,0,0-.21,1.54,1.54,0,0,0,0-.23A1.76,1.76,0,0,0,115,3.4a.94.94,0,0,0-.35-.4,1.27,1.27,0,0,0-.67-.16,1.59,1.59,0,0,0-.46.07,1.08,1.08,0,0,0-.43.25,1.09,1.09,0,0,0-.31.45,2,2,0,0,0-.15.72h2.54M112.59,5a2.09,2.09,0,0,0,.33,1.28,1.17,1.17,0,0,0,1.05.51,1.19,1.19,0,0,0,.77-.25,1.16,1.16,0,0,0,.36-.78h.9a2.32,2.32,0,0,1-.09.46,1.6,1.6,0,0,1-.33.58,1.09,1.09,0,0,1-.2.19,2.15,2.15,0,0,1-.34.22,1.83,1.83,0,0,1-.47.16,2.35,2.35,0,0,1-.65.08q-2.24-.05-2.23-2.55a4,4,0,0,1,.19-1.33,2.1,2.1,0,0,1,.76-1,1.86,1.86,0,0,1,.73-.31,4.43,4.43,0,0,1,.58-.05,2.28,2.28,0,0,1,1.25.31,1.6,1.6,0,0,1,.61.77,2.94,2.94,0,0,1,.21.91A4.73,4.73,0,0,1,116,5Z"/><path class="cls-1" d="M120.9,4.73a3.33,3.33,0,0,0-.09-.88,1.5,1.5,0,0,0-.27-.51,1.43,1.43,0,0,0-.4-.36,1.46,1.46,0,0,0-.65-.14,1.1,1.1,0,0,0-.76.26,1.49,1.49,0,0,0-.39.61,2.71,2.71,0,0,0-.15.67,2.72,2.72,0,0,0,0,.47,3.77,3.77,0,0,0,.06.67,2.11,2.11,0,0,0,.2.62,1.09,1.09,0,0,0,.4.45,1.13,1.13,0,0,0,.66.18,1.24,1.24,0,0,0,.82-.27,1.33,1.33,0,0,0,.42-.6,2.83,2.83,0,0,0,.15-.68c0-.22,0-.38,0-.47h0m0-4.56h.9V6.49q0,.29,0,.79h-.9l0-.79a1.53,1.53,0,0,1-.15.24,1.1,1.1,0,0,1-.29.29,1.59,1.59,0,0,1-.61.28l-.3.06a1.31,1.31,0,0,1-.28,0l-.26,0-.33-.07a1.93,1.93,0,0,1-1.24-1.11,3.06,3.06,0,0,1-.24-1.31,2.92,2.92,0,0,1,.67-2.08,2,2,0,0,1,1.5-.63,2,2,0,0,1,.66.1,1.57,1.57,0,0,1,.43.23,1.17,1.17,0,0,1,.26.27,1.38,1.38,0,0,1,.14.22Z"/><path class="cls-1" d="M127,5.2a2.85,2.85,0,0,0,.06.42,1.13,1.13,0,0,0,.19.46,1.12,1.12,0,0,0,.5.38,2.19,2.19,0,0,0,.92.16,2,2,0,0,0,.87-.16A1.16,1.16,0,0,0,130,6.1a1,1,0,0,0,.22-.42,1.83,1.83,0,0,0,0-.33,1.09,1.09,0,0,0-.1-.51,1,1,0,0,0-.32-.31,4.49,4.49,0,0,0-1.17-.39,6.2,6.2,0,0,1-1.87-.63,1.64,1.64,0,0,1-.56-.68,1.63,1.63,0,0,1-.15-.72,1.77,1.77,0,0,1,.83-1.59A3.31,3.31,0,0,1,128.72,0a5.44,5.44,0,0,1,.95.11,2,2,0,0,1,1,.59,1.44,1.44,0,0,1,.23.33,1.24,1.24,0,0,1,.13.32,3.11,3.11,0,0,1,.07.56h-1a1,1,0,0,0-.48-.88,2.08,2.08,0,0,0-1-.21q-1.51,0-1.53,1.15a.79.79,0,0,0,.32.68,2.48,2.48,0,0,0,.93.38q1.19.3,1.59.43a2,2,0,0,1,.36.13,1.6,1.6,0,0,1,.28.18,1.5,1.5,0,0,1,.38.36,1.56,1.56,0,0,1,.21.4,2.54,2.54,0,0,1,.09.66,2,2,0,0,1-.69,1.58,3,3,0,0,1-2,.64,4.83,4.83,0,0,1-1.06-.15,2.64,2.64,0,0,1-.58-.25,1.71,1.71,0,0,1-.49-.41,1.9,1.9,0,0,1-.34-.8A2.93,2.93,0,0,1,126,5.2h1"/><path class="cls-1" d="M132.14,2.3H133v-1l.88-.3V2.3h1.07V3h-1.07V6a1.15,1.15,0,0,0,0,.2.54.54,0,0,0,.07.22.36.36,0,0,0,.2.16.62.62,0,0,0,.35.08,1.41,1.41,0,0,0,.43,0v.72a4.62,4.62,0,0,1-.75.06,1.45,1.45,0,0,1-.91-.24,1,1,0,0,1-.3-.82V3h-.85V2.3"/><path class="cls-1" d="M139,4.88a4,4,0,0,0-.52,0h-.41a2.6,2.6,0,0,0-.59.11,1.19,1.19,0,0,0-.51.29.78.78,0,0,0-.23.59.76.76,0,0,0,0,.26.8.8,0,0,0,.15.29.83.83,0,0,0,.31.22,1.07,1.07,0,0,0,.49.1,1.13,1.13,0,0,0,1-.53,1.29,1.29,0,0,0,.19-.53,6,6,0,0,0,0-.78m.11,2.4a2.51,2.51,0,0,1-.09-.73,1.62,1.62,0,0,1-.34.47,1.45,1.45,0,0,1-.4.27,2,2,0,0,1-.74.15A1.74,1.74,0,0,1,136.27,7a1.33,1.33,0,0,1-.44-1,1.7,1.7,0,0,1,.16-.72,1.6,1.6,0,0,1,.68-.73,2.78,2.78,0,0,1,.89-.29c.32,0,.57,0,.77,0l.65,0a2,2,0,0,0-.17-1.11.7.7,0,0,0-.38-.26,1.58,1.58,0,0,0-.46-.07,1.09,1.09,0,0,0-.51.1.74.74,0,0,0-.3.24.91.91,0,0,0-.11.28l0,.23h-.9a2.78,2.78,0,0,1,.08-.45,1.49,1.49,0,0,1,.25-.5,1,1,0,0,1,.33-.26,2,2,0,0,1,.39-.16,3.28,3.28,0,0,1,.82-.11,3.09,3.09,0,0,1,1,.17,1.19,1.19,0,0,1,.68.56,1.43,1.43,0,0,1,.14.4c0,.13,0,.25,0,.36l0,2.37a10.73,10.73,0,0,0,.08,1.24Z"/><path class="cls-1" d="M140.91,2.3h.85v-1l.88-.3V2.3h1.07V3h-1.07V6a1.26,1.26,0,0,0,0,.2.56.56,0,0,0,.07.22.36.36,0,0,0,.2.16.62.62,0,0,0,.35.08,1.41,1.41,0,0,0,.43,0v.72a4.62,4.62,0,0,1-.75.06,1.45,1.45,0,0,1-.91-.24,1,1,0,0,1-.3-.82V3h-.85V2.3"/><path class="cls-1" d="M148,4.34a1.93,1.93,0,0,0,0-.21,1.42,1.42,0,0,0,0-.23,1.76,1.76,0,0,0-.15-.49,1,1,0,0,0-.36-.4,1.26,1.26,0,0,0-.67-.16,1.58,1.58,0,0,0-.46.07,1.21,1.21,0,0,0-.75.71,2,2,0,0,0-.15.72H148M145.47,5a2.08,2.08,0,0,0,.33,1.28,1.17,1.17,0,0,0,1.05.51,1.19,1.19,0,0,0,.77-.25,1.16,1.16,0,0,0,.36-.78h.9a2.32,2.32,0,0,1-.09.46,1.58,1.58,0,0,1-.33.58,1.09,1.09,0,0,1-.2.19,2.24,2.24,0,0,1-.34.22,1.84,1.84,0,0,1-.47.16,2.35,2.35,0,0,1-.65.08q-2.24-.05-2.23-2.55a4,4,0,0,1,.19-1.33,2.11,2.11,0,0,1,.76-1,1.87,1.87,0,0,1,.73-.31,4.43,4.43,0,0,1,.58-.05,2.28,2.28,0,0,1,1.25.31,1.61,1.61,0,0,1,.61.77,2.94,2.94,0,0,1,.21.91,4.73,4.73,0,0,1,0,.79Z"/><path class="cls-1" d="M150.92,5.81a.91.91,0,0,0,0,.29.74.74,0,0,0,.15.3.77.77,0,0,0,.32.22,1.29,1.29,0,0,0,.53.1,1.69,1.69,0,0,0,.5-.07.72.72,0,0,0,.34-.25.77.77,0,0,0,.15-.47.54.54,0,0,0-.25-.5,2.82,2.82,0,0,0-.8-.24l-.7-.2a2.76,2.76,0,0,1-.59-.26,1.18,1.18,0,0,1-.4-.41,1.2,1.2,0,0,1-.15-.62,1.32,1.32,0,0,1,.52-1.1,2.18,2.18,0,0,1,1.35-.41,3.31,3.31,0,0,1,1,.16,1.28,1.28,0,0,1,.74.61,2.23,2.23,0,0,1,.12.72h-.92c0-.37-.11-.6-.33-.7a1.52,1.52,0,0,0-.6-.12h-.2a1.17,1.17,0,0,0-.34.08.63.63,0,0,0-.29.21.57.57,0,0,0-.15.42.48.48,0,0,0,.26.45,1.48,1.48,0,0,0,.42.18,13.2,13.2,0,0,1,1.35.36,1.37,1.37,0,0,1,.56.33,1.12,1.12,0,0,1,.28.44,1.54,1.54,0,0,1,.08.48,1.49,1.49,0,0,1-.18.75,1.58,1.58,0,0,1-.47.51,2.08,2.08,0,0,1-.68.25,3.47,3.47,0,0,1-.74.08,2.28,2.28,0,0,1-1.3-.36A1.44,1.44,0,0,1,150,5.81h.94"/><polyline class="cls-1" points="92.23 10.02 96.55 10.02 96.55 10.85 93.17 10.85 93.17 13.08 96.39 13.08 96.39 13.9 93.17 13.9 93.17 16.28 96.63 16.28 96.63 17.14 92.23 17.14 92.23 10.02"/><path class="cls-1" d="M98.4,12.76v-.57h.9V13a1.88,1.88,0,0,1,.14-.24,1.53,1.53,0,0,1,.72-.55,2,2,0,0,1,.67-.1,3.25,3.25,0,0,1,.46,0,1.7,1.7,0,0,1,.57.23,1.38,1.38,0,0,1,.49.5,2,2,0,0,1,.2.92v3.36h-.91V14a2.52,2.52,0,0,0,0-.48.73.73,0,0,0-.22-.37,1.19,1.19,0,0,0-.85-.34,1.18,1.18,0,0,0-.86.36,1.5,1.5,0,0,0-.39,1.12v2.86h-.9V12.76"/><polyline class="cls-1" points="103.46 12.19 104.46 12.19 105.99 16.12 107.48 12.19 108.47 12.19 106.37 17.14 105.47 17.14 103.46 12.19"/><path class="cls-1" d="M109.68,12.19h.9v5h-.9Zm-.1-2.15h1.08v1h-1.08Z"/><path class="cls-1" d="M112.46,13.2a9.6,9.6,0,0,0-.05-1h.91l0,1a1.26,1.26,0,0,1,.49-.74,1.45,1.45,0,0,1,.65-.25,2.54,2.54,0,0,1,.62,0v.91l-.17,0h-.26a1.72,1.72,0,0,0-.64.11.92.92,0,0,0-.4.32,1.88,1.88,0,0,0-.26,1.07v2.63h-.9V13.2"/><path class="cls-1" d="M116.83,14.67a2.5,2.5,0,0,0,.35,1.37,1.2,1.2,0,0,0,1.1.6,1.35,1.35,0,0,0,.53-.11,1.26,1.26,0,0,0,.46-.34,1.66,1.66,0,0,0,.35-.63,3,3,0,0,0,.13-.93q0-1.89-1.4-1.9a1.84,1.84,0,0,0-.47.07,1.43,1.43,0,0,0-.49.31,1.51,1.51,0,0,0-.39.59,2.51,2.51,0,0,0-.16,1m-.93.06a3.54,3.54,0,0,1,.13-.94,2.79,2.79,0,0,1,.39-.86,2,2,0,0,1,.76-.63,2.69,2.69,0,0,1,1.17-.24,2.52,2.52,0,0,1,1.19.25,1.91,1.91,0,0,1,.71.65,2.71,2.71,0,0,1,.36.84,3,3,0,0,1,.07.43c0,.14,0,.29,0,.42a3,3,0,0,1-.6,1.87,2.23,2.23,0,0,1-1.83.79,2.16,2.16,0,0,1-1.77-.76,2.77,2.77,0,0,1-.59-1.83"/><path class="cls-1" d="M122.31,12.76v-.57h.9V13a1.91,1.91,0,0,1,.15-.24,1.53,1.53,0,0,1,.72-.55,2,2,0,0,1,.67-.1,3.25,3.25,0,0,1,.46,0,1.7,1.7,0,0,1,.57.23,1.37,1.37,0,0,1,.49.5,2,2,0,0,1,.2.92v3.36h-.91V14a2.53,2.53,0,0,0,0-.48.74.74,0,0,0-.22-.37,1.2,1.2,0,0,0-.85-.34,1.18,1.18,0,0,0-.86.36,1.51,1.51,0,0,0-.39,1.12v2.86h-.9V12.76"/><path class="cls-1" d="M128.18,12.84l0-.66h.9v.72a1.67,1.67,0,0,1,.81-.73,2.61,2.61,0,0,1,1.47,0,1.43,1.43,0,0,1,.45.22,1.69,1.69,0,0,1,.45.61,2.6,2.6,0,0,1,.19-.26,1.83,1.83,0,0,1,.3-.31,1.69,1.69,0,0,1,.49-.25,2.14,2.14,0,0,1,.69-.1,3.15,3.15,0,0,1,.59.06,1.59,1.59,0,0,1,.58.27,1.38,1.38,0,0,1,.46.54,2.19,2.19,0,0,1,.18.9v3.33h-.9V14a2,2,0,0,0,0-.5.52.52,0,0,0-.12-.26.92.92,0,0,0-.36-.31,1.31,1.31,0,0,0-.6-.12,1.24,1.24,0,0,0-.7.19,1,1,0,0,0-.22.17l-.15.17a1.33,1.33,0,0,0-.19.56,3.05,3.05,0,0,0,0,.52v2.78h-.9V13.85a1.15,1.15,0,0,0-.27-.78,1.11,1.11,0,0,0-.83-.3,1.29,1.29,0,0,0-.75.21,1.46,1.46,0,0,0-.36.33,1.13,1.13,0,0,0-.18.49,3.44,3.44,0,0,0,0,.52v2.83h-.9v-4.3"/><path class="cls-1" d="M140.68,14.2c0-.06,0-.13,0-.21a1.42,1.42,0,0,0,0-.23,1.79,1.79,0,0,0-.15-.49,1,1,0,0,0-.36-.4,1.27,1.27,0,0,0-.67-.16,1.62,1.62,0,0,0-.46.07,1.22,1.22,0,0,0-.75.71,2,2,0,0,0-.15.72h2.54m-2.54.64a2.08,2.08,0,0,0,.33,1.28,1.17,1.17,0,0,0,1.05.51,1.19,1.19,0,0,0,.77-.25,1.16,1.16,0,0,0,.36-.78h.9a2.46,2.46,0,0,1-.08.46,1.65,1.65,0,0,1-.33.58,1.09,1.09,0,0,1-.2.19,2.28,2.28,0,0,1-.34.22,1.9,1.9,0,0,1-.47.16,2.34,2.34,0,0,1-.65.08q-2.24-.05-2.23-2.55a4,4,0,0,1,.19-1.33,2.1,2.1,0,0,1,.76-1,1.86,1.86,0,0,1,.73-.31,4.43,4.43,0,0,1,.58-.05,2.28,2.28,0,0,1,1.25.31,1.61,1.61,0,0,1,.61.77,2.94,2.94,0,0,1,.21.91,4.74,4.74,0,0,1,0,.79Z"/><path class="cls-1" d="M143.13,12.76v-.57h.9V13a1.91,1.91,0,0,1,.14-.24,1.49,1.49,0,0,1,.27-.29,1.51,1.51,0,0,1,.46-.26,2,2,0,0,1,.67-.1,3.26,3.26,0,0,1,.47,0,1.71,1.71,0,0,1,.57.23,1.39,1.39,0,0,1,.49.5,2,2,0,0,1,.2.92v3.36h-.91V14a2.52,2.52,0,0,0,0-.48.72.72,0,0,0-.22-.37,1.2,1.2,0,0,0-.85-.34,1.18,1.18,0,0,0-.86.36,1.52,1.52,0,0,0-.39,1.12v2.86h-.9V12.76"/><path class="cls-1" d="M148.37,12.16h.85v-1l.88-.3v1.33h1.07v.68H150.1v3a1.26,1.26,0,0,0,0,.2.56.56,0,0,0,.07.22.37.37,0,0,0,.2.16.62.62,0,0,0,.35.08,1.42,1.42,0,0,0,.43,0v.72a4.77,4.77,0,0,1-.75.06,1.44,1.44,0,0,1-.91-.24,1,1,0,0,1-.3-.82V12.84h-.85v-.68"/><path class="cls-1" d="M155.22,14.74a3.77,3.77,0,0,0-.52,0h-.41a2.61,2.61,0,0,0-.59.11,1.18,1.18,0,0,0-.51.29.77.77,0,0,0-.23.59.78.78,0,0,0,0,.25.84.84,0,0,0,.15.29.85.85,0,0,0,.31.22,1.08,1.08,0,0,0,.49.1,1.13,1.13,0,0,0,1-.53,1.25,1.25,0,0,0,.19-.53,6,6,0,0,0,0-.78m.11,2.4a2.51,2.51,0,0,1-.09-.73,1.62,1.62,0,0,1-.34.47,1.4,1.4,0,0,1-.4.27,2,2,0,0,1-.74.15,1.74,1.74,0,0,1-1.25-.43,1.33,1.33,0,0,1-.44-1,1.72,1.72,0,0,1,.16-.72,1.61,1.61,0,0,1,.68-.73,2.76,2.76,0,0,1,.89-.29c.32,0,.57,0,.78,0l.65,0A2,2,0,0,0,155,13a.7.7,0,0,0-.38-.26,1.61,1.61,0,0,0-.45-.07,1.1,1.1,0,0,0-.51.1.74.74,0,0,0-.3.24.9.9,0,0,0-.11.28l0,.23h-.9a2.8,2.8,0,0,1,.08-.45,1.45,1.45,0,0,1,.25-.5,1,1,0,0,1,.33-.26,2.15,2.15,0,0,1,.39-.16,3.33,3.33,0,0,1,.82-.11,3.08,3.08,0,0,1,1,.17,1.19,1.19,0,0,1,.68.56,1.39,1.39,0,0,1,.14.4,3.24,3.24,0,0,1,0,.36l0,2.37a10.9,10.9,0,0,0,.08,1.24Z"/><rect class="cls-1" x="157.9" y="10.03" width="0.9" height="7.11"/><path class="cls-1" d="M164.32,13.15h1.13a3.45,3.45,0,0,0,.52,0,1.78,1.78,0,0,0,.52-.14,1,1,0,0,0,.4-.37,1.26,1.26,0,0,0,.15-.67,1.28,1.28,0,0,0-.13-.65.88.88,0,0,0-.37-.33,2.4,2.4,0,0,0-.88-.14h-1.34v2.33M163.37,10h2.3a6.25,6.25,0,0,1,1.08.08,1.36,1.36,0,0,1,.43.17,1.26,1.26,0,0,1,.36.32,2.09,2.09,0,0,1,0,2.77,1.73,1.73,0,0,1-.71.44,4.25,4.25,0,0,1-1.37.17h-1.12v3.17h-.95Z"/><path class="cls-1" d="M169.23,13.2a9.87,9.87,0,0,0-.05-1h.91l0,1a1.26,1.26,0,0,1,.49-.74,1.45,1.45,0,0,1,.65-.25,2.55,2.55,0,0,1,.62,0v.91l-.17,0h-.26a1.72,1.72,0,0,0-.65.11.91.91,0,0,0-.4.32,1.87,1.87,0,0,0-.26,1.07v2.63h-.9V13.2"/><path class="cls-1" d="M173.6,14.67a2.5,2.5,0,0,0,.35,1.37,1.2,1.2,0,0,0,1.1.6,1.37,1.37,0,0,0,.53-.11,1.27,1.27,0,0,0,.46-.34,1.65,1.65,0,0,0,.35-.63,3,3,0,0,0,.13-.93q0-1.89-1.4-1.9a1.86,1.86,0,0,0-.47.07,1.47,1.47,0,0,0-.49.31,1.49,1.49,0,0,0-.38.59,2.49,2.49,0,0,0-.16,1m-.93.06a3.54,3.54,0,0,1,.13-.94,2.79,2.79,0,0,1,.39-.86,2,2,0,0,1,.76-.63,2.69,2.69,0,0,1,1.17-.24,2.52,2.52,0,0,1,1.2.25A1.91,1.91,0,0,1,177,13a2.68,2.68,0,0,1,.36.84,2.65,2.65,0,0,1,.07.43c0,.14,0,.29,0,.42a3,3,0,0,1-.59,1.87,2.23,2.23,0,0,1-1.84.79,2.16,2.16,0,0,1-1.77-.76,2.77,2.77,0,0,1-.59-1.83"/><path class="cls-1" d="M178.3,12.16h.85v-1l.88-.3v1.33h1.07v.68H180v3a1.25,1.25,0,0,0,0,.2.57.57,0,0,0,.07.22.37.37,0,0,0,.2.16.62.62,0,0,0,.35.08,1.41,1.41,0,0,0,.43,0v.72a4.77,4.77,0,0,1-.75.06,1.45,1.45,0,0,1-.91-.24,1,1,0,0,1-.3-.82V12.84h-.85v-.68"/><path class="cls-1" d="M185.41,14.2q0-.09,0-.21a1.32,1.32,0,0,0,0-.23,1.76,1.76,0,0,0-.15-.49,1,1,0,0,0-.36-.4,1.27,1.27,0,0,0-.67-.16,1.62,1.62,0,0,0-.46.07,1.1,1.1,0,0,0-.43.25,1.11,1.11,0,0,0-.31.45,2,2,0,0,0-.15.72h2.54m-2.54.64a2.07,2.07,0,0,0,.33,1.28,1.17,1.17,0,0,0,2.18-.52h.9a2.31,2.31,0,0,1-.08.46,1.59,1.59,0,0,1-.33.58,1.09,1.09,0,0,1-.2.19,2.26,2.26,0,0,1-.33.22,1.93,1.93,0,0,1-.47.16,2.37,2.37,0,0,1-.65.08Q182,17.24,182,14.74a3.94,3.94,0,0,1,.19-1.33,2.1,2.1,0,0,1,.76-1,1.86,1.86,0,0,1,.73-.31,4.43,4.43,0,0,1,.58-.05,2.27,2.27,0,0,1,1.25.31,1.6,1.6,0,0,1,.61.77,2.94,2.94,0,0,1,.21.91,4.64,4.64,0,0,1,0,.79Z"/><path class="cls-1" d="M190.53,13.77a1.84,1.84,0,0,0,0-.27,1.15,1.15,0,0,0-.12-.34.64.64,0,0,0-.27-.31,1.19,1.19,0,0,0-.52-.12,1.08,1.08,0,0,0-.7.23,1.17,1.17,0,0,0-.37.55,3,3,0,0,0-.13.63,2.89,2.89,0,0,0,0,.47,3.93,3.93,0,0,0,.07.72,2.79,2.79,0,0,0,.18.65.94.94,0,0,0,.95.61.91.91,0,0,0,.8-.37,1.21,1.21,0,0,0,.24-.71h.9a1.83,1.83,0,0,1-1.93,1.77,3.22,3.22,0,0,1-.71-.11,2.14,2.14,0,0,1-.43-.2,1.81,1.81,0,0,1-.43-.33,2.47,2.47,0,0,1-.39-.71,3.17,3.17,0,0,1-.18-1.2,3.54,3.54,0,0,1,.21-1.3,2.39,2.39,0,0,1,.52-.82,1.89,1.89,0,0,1,.7-.43,2.31,2.31,0,0,1,.73-.12h.32a2,2,0,0,1,.38.08,1.47,1.47,0,0,1,.41.19,1.37,1.37,0,0,1,.36.33,1.63,1.63,0,0,1,.33.6,2.38,2.38,0,0,1,.07.51h-.9"/><path class="cls-1" d="M192,12.16h.85v-1l.89-.3v1.33h1.07v.68h-1.07v3a1.15,1.15,0,0,0,0,.2.54.54,0,0,0,.07.22.36.36,0,0,0,.2.16.62.62,0,0,0,.35.08,1.42,1.42,0,0,0,.43,0v.72a4.77,4.77,0,0,1-.75.06,1.45,1.45,0,0,1-.91-.24,1,1,0,0,1-.3-.82V12.84H192v-.68"/><path class="cls-1" d="M196,12.19h.9v5H196Zm-.1-2.15H197v1h-1.08Z"/><path class="cls-1" d="M199.34,14.67a2.5,2.5,0,0,0,.35,1.37,1.2,1.2,0,0,0,1.1.6,1.36,1.36,0,0,0,.53-.11,1.27,1.27,0,0,0,.46-.34,1.68,1.68,0,0,0,.35-.63,3,3,0,0,0,.13-.93q0-1.89-1.4-1.9a1.84,1.84,0,0,0-.47.07,1.44,1.44,0,0,0-.49.31,1.47,1.47,0,0,0-.38.59,2.47,2.47,0,0,0-.16,1m-.93.06a3.49,3.49,0,0,1,.13-.94,2.77,2.77,0,0,1,.39-.86,2,2,0,0,1,.76-.63,2.7,2.7,0,0,1,1.17-.24,2.52,2.52,0,0,1,1.19.25,1.9,1.9,0,0,1,.71.65,2.66,2.66,0,0,1,.36.84,2.88,2.88,0,0,1,.07.43c0,.14,0,.29,0,.42a3,3,0,0,1-.59,1.87,2.23,2.23,0,0,1-1.84.79,2.16,2.16,0,0,1-1.77-.76,2.77,2.77,0,0,1-.59-1.83"/><path class="cls-1" d="M204.83,12.76v-.57h.9V13a1.66,1.66,0,0,1,.14-.24,1.44,1.44,0,0,1,.27-.29,1.51,1.51,0,0,1,.46-.26,2,2,0,0,1,.67-.1,3.25,3.25,0,0,1,.46,0,1.69,1.69,0,0,1,.57.23,1.37,1.37,0,0,1,.49.5,2,2,0,0,1,.2.92v3.36h-.91V14a2.52,2.52,0,0,0,0-.48.74.74,0,0,0-.22-.37,1.2,1.2,0,0,0-.85-.34,1.18,1.18,0,0,0-.86.36,1.5,1.5,0,0,0-.39,1.12v2.86h-.9V12.76"/><path class="cls-1" d="M93.63,24.35h2.61L95,20.85l-1.33,3.5m.87-4.48h1L98.3,27h-1l-.75-1.85h-3.2L92.57,27h-1Z"/><path class="cls-1" d="M101.36,26.23a1.35,1.35,0,0,0,.65-.13,1.21,1.21,0,0,0,.4-.36,1.23,1.23,0,0,0,.24-.49,3.6,3.6,0,0,0,.09-.94,2.73,2.73,0,0,0-.09-.76,1.15,1.15,0,0,0-.29-.47,1.35,1.35,0,0,0-1-.43,1.12,1.12,0,0,0-.67.19,1.3,1.3,0,0,0-.4.48,2.67,2.67,0,0,0-.17.59,3.83,3.83,0,0,0,0,.56,3.12,3.12,0,0,0,.05.58,2.09,2.09,0,0,0,.2.58,1.17,1.17,0,0,0,.4.43,1.15,1.15,0,0,0,.66.18m-1,1.15a1.67,1.67,0,0,0,.07.38.73.73,0,0,0,.18.31,1.15,1.15,0,0,0,.86.29,1.34,1.34,0,0,0,.74-.18.91.91,0,0,0,.37-.47,2.27,2.27,0,0,0,.14-.73c0-.27,0-.57,0-.9a1.4,1.4,0,0,1-.35.45,1.74,1.74,0,0,1-.46.25,2.93,2.93,0,0,1-.76.12,2.19,2.19,0,0,1-.74-.12,1.51,1.51,0,0,1-.73-.49,2.52,2.52,0,0,1-.42-.87,3.63,3.63,0,0,1-.13-1,2.6,2.6,0,0,1,.63-1.88,2,2,0,0,1,1.49-.61,2.23,2.23,0,0,1,.63.08,1.32,1.32,0,0,1,.42.2,2.18,2.18,0,0,1,.29.23l.17.23v-.67h.87l0,.9V26q0,.87,0,1.33a2,2,0,0,1-.19.73,1.47,1.47,0,0,1-.9.73,3.58,3.58,0,0,1-1.09.16,3.35,3.35,0,0,1-1.11-.16,1.41,1.41,0,0,1-.6-.4,1.16,1.16,0,0,1-.23-.53,2.62,2.62,0,0,1-.07-.52Z"/><path class="cls-1" d="M108.56,24.06a2,2,0,0,0,0-.21,1.44,1.44,0,0,0,0-.23,1.75,1.75,0,0,0-.15-.49.94.94,0,0,0-.36-.4,1.26,1.26,0,0,0-.67-.16,1.56,1.56,0,0,0-.46.07,1.07,1.07,0,0,0-.43.25,1.1,1.1,0,0,0-.31.45,2,2,0,0,0-.15.72h2.54M106,24.7a2.07,2.07,0,0,0,.33,1.28,1.17,1.17,0,0,0,1.05.51,1.19,1.19,0,0,0,.77-.25,1.16,1.16,0,0,0,.36-.78h.9a2.33,2.33,0,0,1-.09.46,1.6,1.6,0,0,1-.33.58,1.09,1.09,0,0,1-.2.19,2.2,2.2,0,0,1-.34.22,1.83,1.83,0,0,1-.47.16,2.31,2.31,0,0,1-.65.08q-2.24-.05-2.23-2.54a4,4,0,0,1,.19-1.33,2.12,2.12,0,0,1,.75-1,1.87,1.87,0,0,1,.73-.31,4.6,4.6,0,0,1,.58-.05,2.28,2.28,0,0,1,1.25.31,1.61,1.61,0,0,1,.61.77,2.94,2.94,0,0,1,.21.91,4.75,4.75,0,0,1,0,.79Z"/><path class="cls-1" d="M111,22.62V22h.9v.8a1.82,1.82,0,0,1,.14-.24,1.52,1.52,0,0,1,.26-.29,1.49,1.49,0,0,1,.46-.26,1.92,1.92,0,0,1,.67-.1,3.41,3.41,0,0,1,.46,0,1.74,1.74,0,0,1,.57.23,1.38,1.38,0,0,1,.49.5,2,2,0,0,1,.2.92V27h-.91V23.85a2.62,2.62,0,0,0,0-.48A.73.73,0,0,0,114,23a1.19,1.19,0,0,0-.85-.34,1.18,1.18,0,0,0-.86.36,1.51,1.51,0,0,0-.39,1.13V27H111V22.62"/><path class="cls-1" d="M119.71,23.63a1.72,1.72,0,0,0,0-.27,1.13,1.13,0,0,0-.13-.35.62.62,0,0,0-.27-.31,1.19,1.19,0,0,0-.52-.12,1.08,1.08,0,0,0-.7.23,1.19,1.19,0,0,0-.37.55,3.73,3.73,0,0,0-.16,1.1,3.85,3.85,0,0,0,.07.72,3,3,0,0,0,.18.65,1,1,0,0,0,.95.61.91.91,0,0,0,.8-.37,1.21,1.21,0,0,0,.24-.71h.9a1.83,1.83,0,0,1-1.93,1.77A3.17,3.17,0,0,1,118,27a2.05,2.05,0,0,1-.43-.2,1.74,1.74,0,0,1-.43-.33,2.48,2.48,0,0,1-.39-.71,3.19,3.19,0,0,1-.18-1.2,3.53,3.53,0,0,1,.21-1.3,2.39,2.39,0,0,1,.52-.82A1.91,1.91,0,0,1,118,22a2.34,2.34,0,0,1,.73-.12h.32a2,2,0,0,1,.38.08,1.47,1.47,0,0,1,.41.19,1.35,1.35,0,0,1,.36.33,1.63,1.63,0,0,1,.34.6,2.37,2.37,0,0,1,.06.51h-.9"/><polyline class="cls-1" points="124.08 27.04 123.39 28.88 122.46 28.88 123.21 26.98 121.19 22.05 122.21 22.05 123.7 25.96 125.23 22.05 126.21 22.05 124.08 27.04"/></g></g></svg>